<?xml version="1.0" encoding="UTF-8"?>
<svg id="_图层_2" data-name="图层 2" xmlns="http://www.w3.org/2000/svg" viewBox="0 0 59.19 71.8">
  <defs>
    <style>
      .cls-1 {
        fill: #6b0bea;
      }
    </style>
  </defs>
  <g id="_图层_1-2" data-name="图层 1">
    <path class="cls-1" d="M54.55,34.61L11.46,66l7.29-40.9,.89-5h0c.65,.23,1.3,.48,1.95,.73,.15,.06,.3,.12,.45,.18,.66,.26,1.31,.54,1.96,.82,0,0,0,0,0,0l-6.02,33.74,31.67-23.07,9.53-6.97-1.33-3.13c-1.52-1.62-3.12-3.2-4.77-4.69-6.88-6.21-15.07-11.34-23.67-14.8C26.89,1.88,21.92,.31,21.71,.24l-.77-.24-3.73,2.51,4.25,1.16c.42,.14,1,.32,1.64,.53,.08,.02,.15,.05,.23,.08,1.6,.53,3.57,1.2,4.83,1.71,8.23,3.32,16.09,8.23,22.68,14.18,1.48,1.34,2.92,2.74,4.29,4.19L22.73,47.98l1.17-6.53,14.55-10.6,9.5-6.92-1.59-1.37c-1.7-1.46-3.48-2.85-5.33-4.16-.74-.52-1.49-1.03-2.26-1.53-.38-.25-.76-.49-1.15-.73-3.09-1.93-6.32-3.63-9.61-5.05-.21-.09-.42-.18-.63-.26-2.33-.98-4.72-1.85-7.11-2.56-.65-.2-1.31-.38-1.97-.56-.24-.06-.48-.12-.72-.18-.42-.11-.84-.22-1.27-.32-.01,0-.02,0-.03,0h.01c-1.52-.37-3.06-.68-4.59-.94h0s-1.14,.77-1.14,.77l-.42,2.34L0,66.08l3.06,1.91,1.04-5.88h0S13.4,9.96,13.4,9.96c.05,.01,.1,.02,.15,.03,.16,.03,.31,.07,.47,.1,.43,.09,.85,.19,1.28,.29,.19,.04,.38,.09,.57,.14,.41,.1,.82,.2,1.23,.31,.17,.05,.34,.09,.51,.14,.57,.15,1.14,.32,1.7,.49,2.49,.74,4.97,1.65,7.38,2.69,5.51,2.37,10.85,5.58,15.57,9.35,.1,.08,.21,.16,.31,.24l-4.02,2.93c-.09-.07-.18-.13-.27-.2-.2-.15-.41-.31-.61-.46-.29-.22-.58-.43-.88-.65-.2-.15-.41-.29-.61-.43-.3-.21-.61-.42-.92-.63-.21-.14-.41-.28-.62-.41-.31-.21-.63-.41-.95-.61-.21-.13-.41-.26-.62-.39-.32-.2-.65-.4-.97-.59-.21-.12-.41-.25-.62-.37-.34-.2-.68-.39-1.02-.58-.2-.11-.4-.22-.6-.33-.38-.2-.75-.4-1.13-.6-.17-.09-.33-.18-.5-.26-.16-.08-.32-.16-.49-.24v-.02s-1.16-.54-1.16-.54c0,0,0,0-.01,0l-1.96-.92v.04c-1.89-.8-3.82-1.52-5.77-2.14l-1.81-.57L7.88,67.07h0s-.62,3.54-.62,3.54l1.91,1.19,1.45-1.06L56.74,37.14l.91-.67,.1-.69s.25-1.78,.55-3.91l-3.76,2.74s0,0,0,0Zm-29.65,1.18l2.22-12.46c.41,.21,.82,.43,1.23,.65,.04,.02,.08,.04,.11,.06,.46,.25,.91,.51,1.37,.77,.08,.05,.16,.09,.24,.14,.98,.58,1.94,1.18,2.89,1.81,.07,.05,.15,.1,.22,.15,.44,.3,.88,.6,1.31,.9,.03,.02,.06,.04,.09,.06,.38,.27,.76,.55,1.13,.83l-10.98,8,.16-.92Z"/>
  </g>
</svg>