<?xml version="1.0" encoding="UTF-8"?>
<svg width="174px" height="47px" viewBox="0 0 174 47" version="1.1" xmlns="http://www.w3.org/2000/svg" xmlns:xlink="http://www.w3.org/1999/xlink">
    <title>INFINI Pizza-logo-color-RGB</title>
    <g id="pizza" stroke="none" stroke-width="1" fill="none" fill-rule="evenodd">
        <g id="首页修改" transform="translate(-300, -12)" fill="#FFFFFF" fill-rule="nonzero">
            <g id="INFINI-Pizza-logo-color-RGB" transform="translate(300, 12)">
                <polygon id="路径" points="43.5643952 14.4525 46.6802922 14.4525 46.6802922 32.5978571 43.5643952 32.5978571"></polygon>
                <polygon id="路径" points="49.2394824 32.5978571 49.2145552 14.4189286 60.9386371 25.5394643 60.9386371 14.4189286 64.0046798 14.4189286 64.0046798 32.5894643 52.2722888 21.4605357 52.2722888 32.60625 49.2477914 32.60625"></polygon>
                <polygon id="路径" points="81.4537033 14.4525 84.5696003 14.4525 84.5696003 32.5978571 81.4537033 32.5978571"></polygon>
                <polygon id="路径" points="66.6552696 14.4021429 78.7948045 14.4021429 78.7948045 17.2641071 69.7711666 17.2641071 69.7711666 22.0983929 77.5152094 22.0983929 77.5152094 24.9771429 69.7711666 24.9771429 69.7711666 32.5978571 66.6552696 32.5978571"></polygon>
                <polygon id="路径" points="87.4029894 32.5978571 87.3780622 14.4189286 99.1021441 25.5394643 99.1021441 14.4189286 102.168187 14.4189286 102.168187 32.5894643 90.4357958 21.4605357 90.4357958 32.60625 87.4112984 32.60625"></polygon>
                <polygon id="路径" points="104.760613 14.4525 107.87651 14.4525 107.87651 32.5978571 104.760613 32.5978571 104.760613 14.4525"></polygon>
                <path d="M124.943317,24.8344643 L118.279452,24.8344643 L118.279452,32.5978571 L115.396208,32.5978571 L115.396208,14.4021429 L124.976553,14.4021429 C124.976553,14.4021429 125.026408,14.4021429 125.026408,14.4021429 C126.447257,14.3853571 127.668688,14.8889286 128.682393,15.92125 C129.696099,16.9451786 130.202951,18.1789286 130.202951,19.6225 C130.202951,21.0660714 129.696099,22.2998214 128.682393,23.3153571 C127.676997,24.3392857 126.463875,24.85125 125.026408,24.85125 L124.951626,24.85125 L124.943317,24.8344643 Z M118.279452,17.3060714 L118.279452,21.9053571 L125.018098,21.9053571 C125.649587,21.91375 126.189676,21.6955357 126.638365,21.2423214 C127.145218,20.7303571 127.361253,20.1008929 127.294781,19.3371429 C127.253235,18.9175 127.087054,18.50625 126.821164,18.1789286 C126.339239,17.5914286 125.740987,17.2976786 125.026408,17.2976786 L118.287761,17.2976786 L118.279452,17.3060714 Z" id="形状"></path>
                <path d="M131.773363,14.4021429 L134.914187,14.4021429 L134.914187,17.5830357 L131.773363,17.5830357 L131.773363,14.4021429 Z M134.914187,19.5889286 L134.914187,32.5978571 L131.773363,32.5978571 L131.773363,19.5889286 L134.914187,19.5889286 L134.914187,19.5889286 Z" id="形状"></path>
                <polygon id="路径" points="136.841889 19.6308929 147.311303 19.6308929 147.136813 19.975 142.093214 29.5260714 147.153431 29.5260714 147.153431 32.60625 136.700635 32.60625 136.875125 32.2621429 141.968578 22.7110714 136.850198 22.7110714 136.850198 19.6308929"></polygon>
                <polygon id="路径" points="149.130987 19.6308929 159.600401 19.6308929 159.425911 19.975 154.382312 29.5260714 159.442529 29.5260714 159.442529 32.60625 148.989733 32.60625 149.164223 32.2621429 154.257676 22.7110714 149.139296 22.7110714 149.139296 19.6308929"></polygon>
                <path d="M169.529726,19.8910714 C170.019961,20.0505357 170.493577,20.26875 170.950575,20.5541071 L170.950575,19.6141071 L174,19.6141071 L174,32.4803571 L170.950575,32.4803571 L170.950575,31.6075 C170.501886,31.8844643 170.02827,32.1026786 169.529726,32.2705357 C168.889929,32.4719643 168.241822,32.5726786 167.568789,32.5726786 C166.696337,32.5726786 165.865431,32.4048214 165.067762,32.0691071 C164.295019,31.7417857 163.613677,31.2717857 163.023733,30.6758929 C162.425481,30.08 161.968483,29.3833929 161.64443,28.61125 C161.312067,27.8055357 161.145886,26.96625 161.145886,26.085 C161.145886,25.20375 161.312067,24.3644643 161.64443,23.55875 C161.968483,22.7782143 162.43379,22.09 163.023733,21.4941071 C163.613677,20.8982143 164.303328,20.4282143 165.067762,20.1008929 C165.865431,19.7651786 166.696337,19.5973214 167.568789,19.5973214 C168.241822,19.5973214 168.889929,19.6980357 169.529726,19.8994643 L169.529726,19.8910714 Z M167.610334,22.6691071 C166.663101,22.6607143 165.857122,22.9964286 165.184089,23.6678571 C164.527673,24.3392857 164.20362,25.1366071 164.20362,26.0766071 C164.20362,27.0166071 164.527673,27.8223214 165.184089,28.4853571 C165.848813,29.1483929 166.638174,29.4757143 167.568789,29.4757143 C168.499403,29.4757143 169.288764,29.1483929 169.953488,28.4853571 C170.618213,27.8223214 170.942266,27.0166071 170.942266,26.0766071 C170.942266,25.1366071 170.626522,24.3728571 169.995034,23.7098214 C169.363545,23.0467857 168.499403,22.6691071 167.602025,22.6607143 L167.610334,22.6691071 Z" id="形状"></path>
                <path d="M37.4240008,23.4160714 C37.4240008,23.4160714 37.5901819,22.2494643 37.7812903,20.85625 L35.3467361,22.6523214 L35.3467361,22.6523214 C35.3467361,22.6523214 7.42829855,43.1980357 7.42829855,43.1980357 L12.156153,16.4248214 L12.7377871,13.1516071 L12.7377871,13.1516071 C13.1615491,13.3026786 13.5853111,13.4621429 14.0007641,13.63 C14.1004728,13.6719643 14.1918724,13.7055357 14.2915811,13.7475 C14.7153431,13.92375 15.1391051,14.1 15.5628671,14.2846429 L15.5628671,14.2846429 C15.5628671,14.2846429 11.6659185,36.36625 11.6659185,36.36625 L32.1892937,21.2675 L38.3712335,16.7017857 L37.5070914,14.6539286 C36.5183134,13.5880357 35.4879901,12.5557143 34.4161215,11.5821429 C29.962466,7.51160714 24.6529774,4.16285714 19.077599,1.89678571 C17.4324053,1.22535714 14.2167996,0.201428571 14.0755456,0.159464286 L13.5770021,0 L11.1590659,1.645 L13.9176735,2.40035714 C14.1918724,2.49267857 14.56578,2.61017857 14.981233,2.75285714 C15.0310873,2.76964286 15.0809417,2.78642857 15.130796,2.80321429 C16.1694284,3.14732143 17.4407144,3.59214286 18.2633112,3.92785714 C23.5977269,6.10160714 28.69118,9.31607143 32.9620362,13.2103571 C33.917578,14.0832143 34.8565016,15.0064286 35.7455709,15.9548214 L14.7402703,31.4144643 L15.4963946,27.1425 L24.9271764,20.2016071 L31.0841889,15.6694643 L30.0538656,14.7714286 C28.9570699,13.8146429 27.8021107,12.8998214 26.5972972,12.04375 C26.1153718,11.6996429 25.6251373,11.3639286 25.1349028,11.045 C24.8856311,10.8855357 24.6363593,10.7260714 24.3870875,10.5666071 C22.3846044,9.29928571 20.2907216,8.19142857 18.1552934,7.25982143 C18.0223485,7.20107143 17.8810945,7.14232143 17.7398405,7.08357143 C16.2275918,6.43732143 14.6821069,5.875 13.1283129,5.405 C12.7045509,5.27910714 12.2807889,5.15321429 11.8487178,5.03571429 C11.6908457,4.99375 11.5412827,4.96017857 11.3834105,4.91821429 C11.1092116,4.84267857 10.8350127,4.77553571 10.5608137,4.70839286 C10.5608137,4.70839286 10.5441956,4.70839286 10.5358865,4.70839286 L10.5358865,4.70839286 C9.54710854,4.465 8.55833055,4.26357143 7.56124349,4.09571429 L7.56124349,4.09571429 C7.56124349,4.09571429 6.82173726,4.59928571 6.82173726,4.59928571 L6.54753832,6.13517857 L0,43.2483929 L1.97755599,44.4989286 L2.65058975,40.6466071 L2.65058975,40.6466071 C2.65058975,40.6466071 8.68296643,6.52125 8.68296643,6.52125 C8.71620266,6.52125 8.7494389,6.52964286 8.77436608,6.53803571 C8.87407478,6.56321429 8.97378349,6.58 9.08180125,6.60517857 C9.35600019,6.66392857 9.63850819,6.73107143 9.91270713,6.78982143 C10.037343,6.815 10.1619789,6.84857143 10.2783057,6.88214286 C10.5441956,6.94928571 10.8100855,7.01642857 11.0759754,7.08357143 C11.1839931,7.11714286 11.3003199,7.14232143 11.4083377,7.17589286 C11.7739363,7.27660714 12.1478439,7.38571429 12.5134425,7.49482143 C14.1253999,7.98160714 15.7373573,8.56910714 17.2994604,9.25732143 C20.8723557,10.81 24.3289241,12.9082143 27.3866578,15.3757143 C27.4531302,15.4260714 27.5196027,15.4764286 27.5860752,15.5351786 L24.9853398,17.44875 C24.9271764,17.4067857 24.8690129,17.3648214 24.8108495,17.3144643 C24.6779046,17.21375 24.5449596,17.1130357 24.4120147,17.0123214 C24.2209064,16.8696429 24.029798,16.7269643 23.8386897,16.5926786 C23.7057447,16.5003571 23.5727998,16.3996429 23.4398548,16.3073214 C23.2404374,16.1646429 23.04102,16.0303571 22.8416026,15.8960714 C22.7086577,15.80375 22.5757127,15.7114286 22.4427678,15.6275 C22.2433504,15.4932143 22.0356239,15.3589286 21.8278974,15.2246429 C21.6949525,15.1407143 21.5620075,15.0483929 21.4207535,14.9644643 C21.2130271,14.8301786 20.9969915,14.7042857 20.7892651,14.5783929 C20.6563201,14.4944643 20.5233752,14.4189286 20.3904303,14.335 C20.1743947,14.2091071 19.9500501,14.0832143 19.7257056,13.9573214 C19.6010697,13.8817857 19.4681247,13.8146429 19.3434888,13.7391071 C19.1025261,13.6048214 18.8532544,13.4789286 18.6122917,13.3530357 C18.5042739,13.2942857 18.3962561,13.2355357 18.2882384,13.1851786 C18.1802206,13.1348214 18.0805119,13.0844643 17.9724942,13.0257143 L17.9724942,13.0257143 C17.9724942,13.0257143 17.2246789,12.6564286 17.2246789,12.6564286 C17.2246789,12.6564286 17.2246789,12.6564286 17.2246789,12.6564286 L15.9533929,12.0521429 L15.9533929,12.0773214 C14.7319612,11.5485714 13.4772933,11.0785714 12.2143164,10.6757143 L11.0427391,10.2980357 L5.10176209,43.9030357 L5.10176209,43.9030357 C5.10176209,43.9030357 4.69461821,46.2194643 4.69461821,46.2194643 L5.93266797,47 L6.87159161,46.3033929 L36.7675851,24.3141071 L37.3575283,23.8776786 L37.4240008,23.4244643 L37.4240008,23.4160714 Z M16.1361922,23.4160714 L17.5736593,15.2582143 C17.8395492,15.4008929 18.1054391,15.5351786 18.371329,15.68625 C18.3962561,15.7030357 18.4211833,15.7114286 18.4461105,15.7282143 C18.7452366,15.8960714 19.0360537,16.0639286 19.3351798,16.2317857 C19.3850341,16.2653571 19.4431976,16.2905357 19.4930519,16.3241071 C20.1245404,16.7017857 20.7560288,17.09625 21.3625901,17.5075 C21.4124445,17.5410714 21.4539898,17.5746429 21.5038441,17.5998214 C21.7863521,17.7928571 22.0771692,17.9942857 22.3513681,18.1957143 C22.3679862,18.2125 22.3929134,18.2208929 22.4095315,18.2376786 C22.6588033,18.4139286 22.899766,18.5985714 23.1407287,18.7832143 L16.0198653,24.0203571 L16.1278831,23.4160714 L16.1361922,23.4160714 Z" id="形状"></path>
            </g>
        </g>
    </g>
</svg>