<?xml version="1.0" encoding="UTF-8"?>
<svg width="74px" height="70px" viewBox="0 0 74 70" version="1.1" xmlns="http://www.w3.org/2000/svg" xmlns:xlink="http://www.w3.org/1999/xlink">
    <title>编组 12</title>
    <g id="pizza" stroke="none" stroke-width="1" fill="none" fill-rule="evenodd">
        <g id="首页修改" transform="translate(-1424, -2722)">
            <g id="编组-12" transform="translate(1425, 2723)">
                <ellipse id="椭圆形备份-12" stroke="#00FEA3" transform="translate(66.1, 11.4277) rotate(-90) translate(-66.1, -11.4277)" cx="66.1000122" cy="11.4277085" rx="3.29870977" ry="3.30399316"></ellipse>
                <ellipse id="椭圆形备份-13" stroke="#00FEA3" transform="translate(65.51, 38.2886) scale(1, -1) rotate(-90) translate(-65.51, -38.2886)" cx="65.5100134" cy="38.2886308" rx="3.29870977" ry="3.30399316"></ellipse>
                <polyline id="路径-18备份-7" stroke="#00FEA3" transform="translate(52.8998, 14.3141) scale(-1, 1) rotate(-90) translate(-52.8998, -14.3141)" points="55.7861815 4.41787092 55.7861815 15.4457297 50.0134394 20.3478379 50.0134394 24.2102881"></polyline>
                <polyline id="路径-18备份-8" stroke="#00FEA3" transform="translate(52.8998, 35.4023) scale(-1, -1) rotate(-90) translate(-52.8998, -35.4023)" points="55.7861815 25.5060512 55.7861815 36.53391 50.0134394 41.4360182 50.0134394 45.2984684"></polyline>
                <line x1="53.2970387" y1="14.533191" x2="53.2970387" y2="35.1831483" id="路径-18备份" stroke="#00FEA3" transform="translate(53.297, 24.8582) rotate(-90) translate(-53.297, -24.8582)"></line>
                <ellipse id="椭圆形备份-14" stroke="#00FEA3" transform="translate(67.87, 24.8582) rotate(-90) translate(-67.87, -24.8582)" cx="67.8700086" cy="24.8581697" rx="4.12338721" ry="4.12999145"></ellipse>
                <rect id="矩形备份-59" stroke="#002CFF" x="20.316107" y="54.7821797" width="26.549945" height="7.54984774" rx="3.77492387"></rect>
                <path d="M21.8106713,48.7130631 C22.1451751,50.4932181 22.3162744,52.3098294 22.3162744,54.1411661 L22.3162744,54.5266781 L45.252807,54.5266781 L45.252807,54.2624376 C45.252807,47.6016521 47.5345996,41.1683973 51.5999665,35.8790121 C54.4883369,32.1211196 56.2044221,27.4228451 56.2044221,22.3251018 C56.2044221,9.99528317 46.1667961,0 33.7847174,0 C30.5542657,0 27.4864355,0.674156856 24.7154625,1.88981869" id="Fill-3" stroke="#002CFF"></path>
                <path d="M21.9542853,5.8721038 L21.9541163,8.67814575 C24.1816238,9.10247387 26.2489889,9.97850474 28.057281,11.2073077 L30.043338,9.22269914 L34.3986434,13.5780045 L32.4126856,15.5620763 C33.6420131,17.3705707 34.5184519,19.4382867 34.9430068,21.6662292 L37.7492387,21.6670572 L37.7492387,27.8263891 L34.9431968,27.8262201 C34.5187897,30.054142 33.6425118,32.1218619 32.413349,33.930394 L34.3986434,35.9154418 L30.043338,40.2707472 L28.0582902,38.2854528 C26.2497581,39.5146156 24.1820382,40.3908935 21.9541163,40.8153006 L21.9542853,43.6213425 L15.7949534,43.6213425 L15.7941254,40.8151106 C13.5661829,40.3905557 11.4984669,39.5141169 9.68997247,38.2847894 L7.7059007,40.2707472 L3.35059534,35.9154418 L5.33520386,33.9293848 C4.10640094,32.1210927 3.23037007,30.0537276 2.80604195,27.8262201 L9.9475983e-14,27.8263891 L9.9475983e-14,21.6670572 L2.80623191,21.6662292 C3.23070818,19.4386993 4.10690091,17.3713367 5.33587003,15.5630813 L3.35059534,13.5780045 L7.7059007,9.22269914 L9.69097749,11.2079738 C11.4992329,9.97900471 13.5665955,9.10281198 15.7941254,8.67833571 L15.7949534,5.8721038 L21.9542853,5.8721038 Z" id="形状结合" stroke="#00FEA3"></path>
                <g id="AI" transform="translate(8.3887, 16.7774)" fill="#00FEA3" fill-rule="nonzero">
                    <path d="M5.73373317,0 L0,15.0996955 L2.6253357,15.0996955 L3.99051026,11.3141976 L10.2703133,11.3141976 L11.6354878,15.0996955 L14.2608235,15.0996955 L8.52709035,0 L5.73373317,0 Z M4.72560426,9.28398644 L7.09890773,2.66465214 L7.18291847,2.66465214 L9.53521926,9.28398644 L4.72560426,9.28398644 Z" id="形状"></path>
                    <polygon id="路径" points="15.9385675 0 15.9385675 15.0996955 18.4551834 15.0996955 18.4551834 0"></polygon>
                </g>
                <path d="M23.3841007,62.1758876 L44.2700574,62.1758876 C44.2700574,65.364085 41.6855127,67.9486297 38.4973153,67.9486297 L29.1568428,67.9486297 C25.9686453,67.9486297 23.3841007,65.364085 23.3841007,62.1758876 L23.3841007,62.1758876 L23.3841007,62.1758876 Z" id="矩形" stroke="#002CFF"></path>
            </g>
        </g>
    </g>
</svg>