<?xml version="1.0" encoding="UTF-8"?>
<svg width="68px" height="74px" viewBox="0 0 68 74" version="1.1" xmlns="http://www.w3.org/2000/svg" xmlns:xlink="http://www.w3.org/1999/xlink">
    <title>编组 11</title>
    <g id="pizza" stroke="none" stroke-width="1" fill="none" fill-rule="evenodd">
        <g id="首页修改" transform="translate(-1093, -2720)">
            <g id="编组-11" transform="translate(1094, 2721)">
                <path d="M41.9114038,7.08784611 C38.7323165,3.65320304 34.1819452,1.50249798 29.1284454,1.50249798 C19.5179126,1.50249798 11.7270365,9.28091579 11.7270365,18.8760804 C11.7270365,22.6129546 12.9087124,26.0742749 14.9193434,28.9078845" id="路径" stroke="#00FEA3" transform="translate(26.8192, 15.2052) rotate(6) translate(-26.8192, -15.2052)"></path>
                <path d="M56.9776876,19.2354975 C55.5795626,13.2595153 50.2092916,8.80843043 43.797749,8.80843043 C40.3759276,8.80843043 37.2506942,10.0762443 34.8675836,12.1670497" id="路径" stroke="#00FEA3"></path>
                <path d="M56.0909143,18.1079355 C56.7255774,18.3650613 57.3392615,18.6631575 57.9286862,18.9989439 C62.5933584,21.656337 65.7386559,26.6742767 65.7386559,32.42684 C65.7386559,40.9558752 58.8245068,47.8700244 50.2954715,47.8700244 C48.3656533,47.8700244 47.0257623,47.8700244 46.0998809,47.8700244 M17.9502969,47.8700244 C17.0970144,47.8700244 17.1497494,47.8700244 15.4431844,47.8700244 C6.91414917,47.8700244 0,40.9558752 0,32.42684 C0,25.3373592 4.77713793,19.3636388 11.2880138,17.5490788" id="形状" stroke="#00FEA3"></path>
                <ellipse id="椭圆形" stroke="#002CFF" cx="50.2707369" cy="67.1740049" rx="3.86697976" ry="3.8607961"></ellipse>
                <ellipse id="椭圆形备份-9" stroke="#002CFF" transform="translate(13.5557, 67.4059) scale(-1, 1) translate(-13.5557, -67.4059)" cx="13.555662" cy="67.4058949" rx="3.85528002" ry="3.84911507"></ellipse>
                <ellipse id="椭圆形备份-10" stroke="#00FEA3" transform="translate(4.6015, 56.4794) scale(-1, 1) translate(-4.6015, -56.4794)" cx="4.60146325" cy="56.4793747" rx="3.85528002" ry="3.84911507"></ellipse>
                <polyline id="路径-18备份-4" stroke="#002CFF" points="23.1341069 45.942433 23.1341069 59.297903 16.4184578 65.0292735"></polyline>
                <polyline id="路径-18备份-5" stroke="#00FEA3" points="13.6800259 47.1669995 13.6800259 52.8876542 7.71056005 55.8585497"></polyline>
                <ellipse id="椭圆形备份-8" stroke="#00FEA3" cx="58.9714414" cy="56.5568156" rx="3.86697976" ry="3.8607961"></ellipse>
                <polyline id="路径-18备份-2" stroke="#002CFF" transform="translate(43.6502, 55.4638) scale(-1, 1) translate(-43.6502, -55.4638)" points="47.0338187 45.942433 47.0338187 59.2673125 40.2666041 64.9850848"></polyline>
                <polyline id="路径-18备份-3" stroke="#00FEA3" transform="translate(53.1387, 51.4583) scale(-1, 1) translate(-53.1387, -51.4583)" points="56.0712065 47.0493182 56.0712065 52.8531958 50.2061951 55.8673112"></polyline>
                <line x1="31.8755897" y1="45.942433" x2="31.8755897" y2="62.0209859" id="路径-18" stroke="#002CFF"></line>
                <ellipse id="椭圆形" stroke="#002CFF" cx="31.902583" cy="67.1740049" rx="4.8337247" ry="4.82599513"></ellipse>
            </g>
        </g>
    </g>
</svg>