<?xml version="1.0" encoding="UTF-8"?>
<svg width="16px" height="16px" viewBox="0 0 16 16" version="1.1" xmlns="http://www.w3.org/2000/svg" xmlns:xlink="http://www.w3.org/1999/xlink">
    <title>文档</title>
    <g id="pizza" stroke="none" stroke-width="1" fill="none" fill-rule="evenodd">
        <g id="首页修改" transform="translate(-453, -4304)" fill="#FFFFFF" fill-rule="nonzero">
            <g id="文档" transform="translate(453, 4304)">
                <rect id="矩形" opacity="0" x="0" y="0" width="16" height="16"></rect>
                <path d="M10.4345511,1 L14,4.61237845 L14,15 L2,15 L2,1 L10.4345511,1 Z M9.27273295,2.10490004 L3.09090909,2.10490004 L3.09090909,13.8947373 L12.9090909,13.8947373 L12.9090909,5.78948323 L9.27273295,5.78948323 L9.27273295,2.1052627 L9.27273295,2.10490004 Z M11.2727273,10.5789492 L11.2727273,11.6842119 L4.72727273,11.6842119 L4.72727273,10.5789492 L11.2727273,10.5789492 Z M11.2727273,7.63157622 L11.2727273,8.73683892 L4.72727273,8.73683892 L4.72727273,7.63157622 L11.2727273,7.63157622 Z M7.808,4.68422052 L7.808,5.78948323 L4.72727273,5.78948323 L4.72727273,4.68422052 L7.808,4.68422052 Z M12.5283636,4.68422052 L10.363642,2.49099939 L10.363642,4.68422052 L12.5283636,4.68422052 L12.5283636,4.68422052 Z" id="形状"></path>
            </g>
        </g>
    </g>
</svg>