<?xml version="1.0" encoding="UTF-8"?>
<svg width="15px" height="14px" viewBox="0 0 15 14" version="1.1" xmlns="http://www.w3.org/2000/svg" xmlns:xlink="http://www.w3.org/1999/xlink">
    <title>路径</title>
    <g id="pizza" stroke="none" stroke-width="1" fill="none" fill-rule="evenodd">
        <g id="首页修改" transform="translate(-1605, -5955)" fill="#D8D8D8" fill-rule="nonzero">
            <g id="编组-4" transform="translate(0, 5779)">
                <g id="编组-3备份" transform="translate(1544, 173)">
                    <g id="-收藏2" transform="translate(60, 2)">
                        <path d="M4.44467188,14.7093281 C3.87532812,14.9536719 3.37467187,14.5893281 3.43067188,13.9723281 L3.784,10.083 L1.21532813,7.14467188 C0.808,6.67867188 1.002,6.089 1.60267188,5.95232813 L5.40532812,5.087 L7.402,1.73267188 C7.719,1.2 8.33867188,1.20032813 8.65532813,1.73267188 L10.652,5.087 L14.4546562,5.95232813 C15.0586719,6.08967188 15.2493438,6.67867188 14.842,7.14467188 L12.2733281,10.083 L12.6286719,13.9736719 C12.685,14.591 12.184,14.955 11.6146719,14.7103281 L8.02867187,13.171 L4.44467188,14.7093281 Z" id="路径"></path>
                    </g>
                </g>
            </g>
        </g>
    </g>
</svg>