<?xml version="1.0" encoding="UTF-8"?>
<svg width="24px" height="24px" viewBox="0 0 24 24" version="1.1" xmlns="http://www.w3.org/2000/svg" xmlns:xlink="http://www.w3.org/1999/xlink">
    <title>推特1</title>
    <g id="网站-pc" stroke="none" stroke-width="1" fill="none" fill-rule="evenodd">
        <g id="首页" transform="translate(-1538.000000, -4957.000000)" fill="#FFFFFF" fill-rule="nonzero">
            <g id="页脚" transform="translate(0.000000, 4828.000000)">
                <g id="推特1" transform="translate(1538.000000, 129.000000)">
                    <rect id="矩形" opacity="0" x="0" y="0" width="24" height="24"></rect>
                    <path d="M21.058095,7.70768895 C21.058095,7.49431042 21.0540024,7.28333932 21.0445733,7.07381267 C21.9567083,6.39415512 22.7481107,5.5433694 23.3740425,4.56980478 C22.5240082,4.95228678 21.6194846,5.19975281 20.6931286,5.30326841 C21.6572642,4.70995733 22.3966661,3.76106886 22.7460644,2.62235454 C21.8433184,3.16984421 20.8447566,3.56125216 19.7830399,3.7652016 C18.9323345,2.79721418 17.7183478,2.18067141 16.376286,2.15776071 C13.7988113,2.1151492 11.709403,4.29327133 11.709403,7.02209305 C11.709403,7.40997013 11.7499682,7.78613104 11.8304967,8.14937208 C7.94915807,7.89960124 4.50978344,5.87928611 2.20912311,2.83364663 C1.80768418,3.56333861 1.57737341,4.41613052 1.57737341,5.33003099 C1.57737341,7.0585656 2.40131628,8.59486695 3.65321991,9.50142479 C2.88681462,9.46675779 2.16887891,9.23464145 1.53917552,8.8540669 L1.53917552,8.91754282 C1.53917552,11.3333987 3.14838188,13.3575255 5.28361165,13.829783 C4.89216356,13.9411267 4.47928935,13.9990655 4.05465884,13.996979 C3.75962889,13.9954547 3.46555752,13.9632492 3.17719077,13.9008825 C3.77050185,15.8806324 5.4948636,17.3270162 7.53632398,17.3752049 C5.93859304,18.6999735 3.92594159,19.4912956 1.74079778,19.4857585 C1.364035,19.4857585 0.991725986,19.4604805 0.626719488,19.4146591 C2.69289614,20.8319532 5.14550541,21.6574212 7.78204232,21.6574212 C16.3645297,21.6594671 21.058095,14.1891722 21.058095,7.70768895 L21.058095,7.70768895 Z" id="路径"></path>
                </g>
            </g>
        </g>
    </g>
</svg>