<?xml version="1.0" encoding="UTF-8"?>
<svg width="24px" height="24px" viewBox="0 0 24 24" version="1.1" xmlns="http://www.w3.org/2000/svg" xmlns:xlink="http://www.w3.org/1999/xlink">
    <title>discord-3@1x</title>
    <g id="discord-3" stroke="none" stroke-width="1" fill="none" fill-rule="evenodd">
        <g id="discord-2" transform="translate(1.000000, 3.000000)" fill="#FFFFFF" fill-rule="nonzero">
            <path d="M18.652581,1.43577098 C18.6464662,1.42375411 18.6363328,1.4143377 18.6239958,1.40920842 C17.1976116,0.745472034 15.6923673,0.272176024 14.1459324,0.00116485899 C14.1171161,-0.00426849623 14.0881122,0.00965160311 14.0739832,0.0356961921 C13.869016,0.412994251 13.6829511,0.800541511 13.5164982,1.1968597 C11.8495259,0.940220466 10.1539086,0.940220466 8.48693629,1.1968597 C8.31938151,0.799535156 8.13033491,0.411891279 7.92065879,0.0356961921 C7.90594133,0.0102746644 7.87738476,-0.00342366239 7.84867214,0.00116485921 C6.30207382,0.271607066 4.79673177,0.744938659 3.3705339,1.40924637 C3.35832508,1.4144957 3.34802354,1.42345858 3.3410508,1.43489821 C0.488935307,5.75465413 -0.292366767,9.96819773 0.0909134956,14.1295649 C0.0930919971,14.1501711 0.103420576,14.1689992 0.119536046,14.1817413 C1.78029647,15.4288739 3.6378771,16.3808197 5.61300779,16.9969557 C5.64149454,17.0056224 5.67228987,16.9953881 5.69019514,16.9713038 C6.11441037,16.3858953 6.49029693,15.7659994 6.81403244,15.1179199 C6.82303011,15.0999316 6.82400939,15.0788984 6.81672308,15.0601302 C6.80943677,15.041362 6.79458114,15.0266522 6.77590645,15.0197143 C6.18316081,14.7896953 5.60931381,14.5124128 5.05975074,14.190469 C5.03947721,14.1783817 5.02647791,14.1568409 5.02508857,14.1330314 C5.02369923,14.1092218 5.03410266,14.0862764 5.05282895,14.0718482 C5.1684703,13.9842413 5.28210519,13.8939425 5.39364307,13.8010239 C5.41359718,13.7843559 5.4411395,13.7805922 5.46473176,13.7913096 C9.06514921,15.4578069 12.9630915,15.4578069 16.5208932,13.7913096 C16.5445573,13.779901 16.5725849,13.7833434 16.5928798,13.8001511 C16.7045445,13.893561 16.8184709,13.9841544 16.9345545,14.0718482 C16.9533809,14.0861284 16.9639488,14.1089877 16.9627321,14.1327989 C16.9615154,14.1566102 16.9486743,14.178239 16.9284933,14.190469 C16.3801799,14.515121 15.8058127,14.7922298 15.2115144,15.0188416 C15.1928488,15.0260455 15.1780954,15.0409765 15.1709524,15.0598917 C15.1638094,15.078807 15.164954,15.0999133 15.1740993,15.1179199 C15.5032549,15.7623954 15.8785879,16.3815103 16.2970761,16.9702793 C16.3144952,16.9950478 16.3455792,17.0057448 16.3742634,16.9968418 C18.3529335,16.3827948 20.2137608,15.4307604 21.8766025,14.1817413 C21.8929819,14.1696176 21.9034128,14.1509209 21.9052251,14.1304376 C22.3640839,9.31946403 21.1370183,5.14045176 18.652581,1.43577098 L18.652581,1.43577098 Z M6.9998924,12 C5.90344091,12 5,11.102397 5,10.0000338 C5,8.89767049 5.88591858,8 6.9998924,8 C8.12257063,8 9.01726929,8.90546928 8.99974696,9.99996624 C8.99974696,11.102397 8.11379054,12 6.9998924,12 L6.9998924,12 Z M14.9998546,12 C13.9034409,12 13,11.102397 13,10.0000338 C13,8.89767049 13.8859186,8 14.9998546,8 C16.1226085,8 17.0172693,8.90546928 16.9997469,9.99996624 C16.9997469,11.102397 16.1226085,12 14.9998546,12 Z" id="形状"></path>
        </g>
    </g>
</svg>