<?xml version="1.0" encoding="UTF-8"?>
<svg width="24px" height="24px" viewBox="0 0 24 24" version="1.1" xmlns="http://www.w3.org/2000/svg" xmlns:xlink="http://www.w3.org/1999/xlink">
    <title>github</title>
    <g id="网站-pc" stroke="none" stroke-width="1" fill="none" fill-rule="evenodd">
        <g id="首页" transform="translate(-1592.000000, -4957.000000)" fill="#FFFFFF" fill-rule="nonzero">
            <g id="页脚" transform="translate(0.000000, 4828.000000)">
                <g id="github" transform="translate(1592.000000, 129.000000)">
                    <rect id="矩形" opacity="0" x="0" y="0" width="24" height="24"></rect>
                    <path d="M11.9990639,1.21677027 C6.05483946,1.21677027 1.23486912,6.0358045 1.23486912,11.9819011 C1.23486912,16.7391529 4.31837704,20.7737367 8.59728255,22.1984784 C9.134603,22.2948965 9.30497289,21.9775592 9.30497289,21.6920492 C9.30497289,21.4355582 9.31058949,20.7213152 9.30497289,19.8226608 C6.31133041,20.4723131 5.69069722,18.4044718 5.69069722,18.4044718 C5.20111778,17.1603971 4.49717184,16.8299544 4.49717184,16.8299544 C3.51894907,16.1615802 4.5692514,16.1756217 4.5692514,16.1756217 C5.64857279,16.2505096 6.21865668,17.2839621 6.21865668,17.2839621 C7.17909357,18.929623 8.7376973,18.454085 9.3508417,18.1788721 C9.45006813,17.4842872 9.72715323,17.0078131 10.0351296,16.7410251 C7.64433444,16.4676844 5.13184651,15.5456275 5.13184651,11.41837 C5.13184651,10.2435665 5.55121857,9.28312964 6.24018693,8.52957047 C6.12972732,8.25903805 5.75903238,7.16286691 6.34502995,5.68102325 C6.34502995,5.68102325 7.25023705,5.39176886 9.30497289,6.78561927 C10.1836343,6.54597521 11.0901819,6.42384311 12.0009361,6.42241313 C12.9145681,6.42709362 13.8356889,6.54597811 14.6968993,6.78561927 C16.7516352,5.39270495 17.654034,5.68102323 17.654034,5.68102325 C18.2409676,7.16286691 17.8712088,8.25903807 17.7607492,8.52957047 C18.4497176,9.28312964 18.8681535,10.2435665 18.8681535,11.41837 C18.8681535,15.5559246 16.3509851,16.4648761 13.9527011,16.7297919 C14.3383737,17.063979 14.6894105,17.7098869 14.6894105,18.7143204 L14.6894105,21.6948575 C14.6894105,21.9831758 14.8635248,22.3005131 15.4102062,22.1966062 C19.6844313,20.7709284 22.7651309,16.7372807 22.7651309,11.9819011 C22.7651309,6.0358045 17.9460966,1.21677027 11.9990639,1.21677027 Z" id="路径"></path>
                </g>
            </g>
        </g>
    </g>
</svg>