<?xml version="1.0" encoding="UTF-8"?>
<svg width="652px" height="282px" viewBox="0 0 652 282" version="1.1" xmlns="http://www.w3.org/2000/svg" xmlns:xlink="http://www.w3.org/1999/xlink">
    <title>编组 16</title>
    <defs>
        <linearGradient x1="-1.30624678e-13%" y1="50%" x2="100%" y2="50%" id="linearGradient-1">
            <stop stop-color="#00FFA2" offset="0%"></stop>
            <stop stop-color="#002BFF" offset="100%"></stop>
        </linearGradient>
    </defs>
    <g id="pizza" stroke="none" stroke-width="1" fill="none" fill-rule="evenodd">
        <g id="首页修改" transform="translate(-968, -3529)">
            <g id="编组-16" transform="translate(968, 3529)">
                <rect id="矩形备份-29" fill="#0C1015" x="0" y="0" width="652" height="282" rx="16"></rect>
                <rect id="矩形备份-47" fill="url(#linearGradient-1)" transform="translate(301.5674, 145.9704) rotate(-90) translate(-301.5674, -145.9704)" x="220.567376" y="125.402996" width="162" height="41.1347518"></rect>
                <rect id="矩形备份-51" fill="#303030" transform="translate(95.8232, 219.1047) rotate(-90) translate(-95.8232, -219.1047)" x="87.9574867" y="198.537294" width="15.731405" height="41.1347518"></rect>
                <rect id="矩形备份-65" fill="#303030" transform="translate(370.5674, 171.9704) rotate(-90) translate(-370.5674, -171.9704)" x="315.567376" y="151.402996" width="110" height="41.1347518"></rect>
                <rect id="矩形备份-53" fill="#303030" transform="translate(164.5674, 219.1047) rotate(-90) translate(-164.5674, -219.1047)" x="156.701673" y="198.537294" width="15.731405" height="41.1347518"></rect>
                <rect id="矩形备份-66" fill="#303030" transform="translate(439.5674, 219.1047) rotate(-90) translate(-439.5674, -219.1047)" x="431.701673" y="198.537294" width="15.731405" height="41.1347518"></rect>
                <rect id="矩形备份-54" fill="#303030" transform="translate(233.5674, 190.9704) rotate(-90) translate(-233.5674, -190.9704)" x="197.567376" y="170.402996" width="72" height="41.1347518"></rect>
                <rect id="矩形备份-67" fill="#303030" transform="translate(508.5674, 190.9704) rotate(-90) translate(-508.5674, -190.9704)" x="472.567376" y="170.402996" width="72" height="41.1347518"></rect>
                <rect id="矩形备份-82" fill="#303030" transform="translate(576.5674, 198.9704) rotate(-90) translate(-576.5674, -198.9704)" x="548.567376" y="178.402996" width="56" height="41.1347518"></rect>
                <polyline id="路径-24备份" stroke="#2A2A2E" points="40 40.3238207 40 244.198084 612 244.198084"></polyline>
            </g>
        </g>
    </g>
</svg>