<?xml version="1.0" encoding="UTF-8"?>
<svg id="_图层_2" data-name="图层 2" xmlns="http://www.w3.org/2000/svg" viewBox="0 0 268.5 71.8">
  <defs>
    <style>
      .cls-1 {
        fill: #6b0bea;
      }

      .cls-2 {
        fill: #2d2d2d;
      }
    </style>
  </defs>
  <g id="_图层_1-2" data-name="图层 1">
    <g>
      <path class="cls-2" d="M67.23,22.08h4.8v27.72h-4.8V22.08Z"/>
      <path class="cls-2" d="M75.98,49.8l-.04-27.78,18.09,16.99V22.02h4.73v27.76l-18.11-17.01-.02,17.03h-4.65Z"/>
      <path class="cls-2" d="M125.7,22.08h4.8v27.72h-4.8V22.08Z"/>
      <path class="cls-2" d="M102.86,22h18.73v4.38h-13.93v7.38h11.95v4.4h-11.95v11.64h-4.8V22Z"/>
      <path class="cls-2" d="M134.87,49.8l-.04-27.78,18.09,16.99V22.02h4.73v27.76l-18.11-17.01-.02,17.03h-4.65Z"/>
      <path class="cls-2" d="M161.66,22.08h4.8v27.72h-4.8V22.08Z"/>
      <path class="cls-2" d="M192.8,37.94h-10.29v11.85h-4.45V22h.41l14.37,.02,.08-.02c2.2-.03,4.07,.75,5.64,2.32,1.56,1.56,2.34,3.45,2.34,5.66s-.78,4.09-2.34,5.64c-1.55,1.56-3.43,2.34-5.64,2.34h-.12v-.02Zm-10.29-11.49v7.03h10.4v.02c.97,0,1.8-.34,2.5-1.03,.78-.78,1.11-1.75,1.01-2.91-.06-.64-.32-1.27-.74-1.77-.75-.9-1.67-1.34-2.77-1.34h-10.4Z"/>
      <path class="cls-2" d="M203.34,22h4.84v4.86h-4.84v-4.86Zm4.84,7.92v19.87h-4.84V29.93h4.84Z"/>
      <path class="cls-2" d="M211.17,29.98h16.15l-.27,.52-7.79,14.59h7.81v4.71h-16.13l.27-.52,7.86-14.59h-7.9v-4.71Z"/>
      <path class="cls-2" d="M230.13,29.98h16.15l-.27,.52-7.79,14.59h7.81v4.71h-16.13l.27-.52,7.86-14.59h-7.9v-4.71Z"/>
      <path class="cls-2" d="M261.61,30.39c.76,.25,1.49,.58,2.19,1.01v-1.43h4.71v19.66h-4.71v-1.34c-.7,.43-1.43,.76-2.19,1.01-.98,.31-1.99,.47-3.02,.47-1.34,0-2.63-.26-3.85-.77-1.19-.5-2.24-1.21-3.16-2.13-.92-.92-1.63-1.97-2.13-3.16-.52-1.23-.77-2.51-.77-3.85s.26-2.63,.77-3.85c.5-1.19,1.21-2.24,2.13-3.16,.92-.92,1.97-1.63,3.16-2.13,1.23-.52,2.51-.77,3.85-.77,1.03,0,2.04,.16,3.02,.47Zm-2.96,4.24c-1.46-.01-2.7,.5-3.74,1.53-1.01,1.02-1.51,2.25-1.51,3.68s.5,2.66,1.51,3.68c1.02,1.01,2.25,1.51,3.68,1.51s2.66-.5,3.68-1.51c1.02-1.02,1.53-2.25,1.53-3.68s-.49-2.6-1.46-3.61-2.31-1.59-3.69-1.6Z"/>
      <path class="cls-1" d="M57.75,35.78s.25-1.78,.55-3.91l-3.76,2.74h0S11.46,66,11.46,66l7.29-40.9,.89-5h0c.65,.23,1.3,.48,1.95,.73,.15,.06,.3,.12,.45,.18,.66,.26,1.31,.54,1.96,.82h0s-6.02,33.74-6.02,33.74l31.67-23.07,9.53-6.97-1.33-3.13c-1.52-1.62-3.12-3.2-4.77-4.69-6.88-6.21-15.07-11.34-23.67-14.8C26.89,1.88,21.92,.31,21.71,.24l-.77-.24-3.73,2.51,4.25,1.16c.42,.14,1,.32,1.64,.53,.08,.02,.15,.05,.23,.08,1.6,.53,3.57,1.2,4.83,1.71,8.23,3.32,16.09,8.23,22.68,14.18,1.48,1.34,2.92,2.74,4.29,4.19L22.73,47.98l1.17-6.53,14.55-10.6,9.5-6.92-1.59-1.37c-1.7-1.46-3.48-2.85-5.33-4.16-.74-.52-1.49-1.03-2.26-1.53-.38-.25-.76-.49-1.15-.73-3.09-1.93-6.32-3.63-9.61-5.05-.21-.09-.42-.18-.63-.26-2.33-.98-4.72-1.85-7.11-2.56-.65-.2-1.31-.38-1.97-.56-.24-.06-.48-.12-.72-.18-.42-.11-.84-.22-1.27-.32-.01,0-.02,0-.03,0h.01c-1.52-.37-3.06-.68-4.59-.94h0s-1.14,.77-1.14,.77l-.42,2.34L0,66.08l3.06,1.91,1.04-5.88h0S13.4,9.96,13.4,9.96c.05,.01,.1,.02,.15,.03,.16,.03,.31,.07,.47,.1,.43,.09,.85,.19,1.28,.29,.19,.04,.38,.09,.57,.14,.41,.1,.82,.2,1.23,.31,.17,.05,.34,.09,.51,.14,.57,.15,1.14,.32,1.7,.49,2.49,.74,4.97,1.65,7.38,2.69,5.51,2.37,10.85,5.58,15.57,9.35,.1,.08,.21,.16,.31,.24l-4.02,2.93c-.09-.07-.18-.13-.27-.2-.2-.15-.41-.31-.61-.46-.29-.22-.58-.43-.88-.65-.2-.15-.41-.29-.61-.43-.3-.21-.61-.42-.92-.63-.21-.14-.41-.28-.62-.41-.31-.21-.63-.41-.95-.61-.21-.13-.41-.26-.62-.39-.32-.2-.65-.4-.97-.59-.21-.12-.41-.25-.62-.37-.34-.2-.68-.39-1.02-.58-.2-.11-.4-.22-.6-.33-.38-.2-.75-.4-1.13-.6-.17-.09-.33-.18-.5-.26-.16-.08-.32-.16-.49-.24v-.02s-1.16-.54-1.16-.54c0,0,0,0-.01,0l-1.96-.92v.04c-1.89-.8-3.82-1.52-5.77-2.14l-1.81-.57L7.88,67.07h0s-.63,3.54-.63,3.54l1.91,1.19,1.45-1.06L56.74,37.14l.91-.67,.1-.69Zm-32.85,0l2.22-12.46c.41,.21,.82,.43,1.23,.65,.04,.02,.08,.04,.11,.06,.46,.25,.91,.51,1.37,.77,.08,.05,.16,.09,.24,.14,.98,.58,1.94,1.18,2.89,1.81,.07,.05,.15,.1,.22,.15,.44,.3,.88,.6,1.31,.9,.03,.02,.06,.04,.09,.06,.38,.27,.76,.55,1.13,.83l-10.98,8,.16-.92Z"/>
    </g>
  </g>
</svg>